<?xml version="1.0" standalone="no"?>
<!DOCTYPE svg PUBLIC "-//W3C//DTD SVG 20010904//EN"
 "http://www.w3.org/TR/2001/REC-SVG-20010904/DTD/svg10.dtd">
<svg version="1.0" xmlns="http://www.w3.org/2000/svg"
 width="256.000000pt" height="256.000000pt" viewBox="0 0 256.000000 256.000000"
 preserveAspectRatio="xMidYMid meet">

<g transform="translate(0.000000,256.000000) scale(0.100000,-0.100000)"
fill="#000000" stroke="none">
<path d="M845 2533 c-96 -48 -170 -233 -163 -408 l3 -80 30 0 c24 0 29 4 27
19 -2 11 -1 35 3 54 5 27 9 32 16 21 5 -8 9 -25 10 -39 0 -16 5 -8 13 23 16
58 23 66 101 107 53 28 68 31 130 29 90 -3 165 9 172 28 8 21 -18 96 -39 111
-10 7 -18 18 -18 23 0 17 -66 90 -100 110 -38 24 -141 25 -185 2z"/>
<path d="M1975 2516 c-81 -14 -157 -37 -207 -62 -44 -23 -183 -150 -220 -202
-90 -125 -176 -308 -180 -386 -3 -35 0 -41 18 -44 17 -2 22 3 27 31 7 44 82
205 110 235 11 12 17 22 13 22 -4 0 4 10 18 23 15 12 38 32 52 45 19 17 37 22
80 22 30 0 62 -4 72 -9 9 -5 30 -15 46 -22 16 -8 43 -32 60 -54 53 -67 146
-153 174 -159 101 -23 198 -39 265 -43 77 -4 78 -4 107 27 17 18 28 36 25 40
-3 5 1 10 7 13 7 2 -9 15 -36 28 -76 37 -103 83 -125 214 -25 142 -46 196 -98
246 -49 49 -86 55 -208 35z"/>
<path d="M1163 2093 c9 -2 23 -2 30 0 6 3 -1 5 -18 5 -16 0 -22 -2 -12 -5z"/>
<path d="M1260 2086 c0 -2 9 -6 20 -9 11 -3 20 -1 20 4 0 5 -9 9 -20 9 -11 0
-20 -2 -20 -4z"/>
<path d="M1490 1860 c0 -11 -4 -20 -10 -20 -17 0 -11 -41 10 -74 10 -18 42
-101 69 -184 42 -127 51 -169 57 -257 4 -58 10 -105 15 -105 4 0 5 18 2 40 -5
34 -3 40 12 40 14 0 15 3 5 15 -7 8 -8 15 -4 15 16 0 31 -35 38 -85 8 -63 -4
-87 -28 -54 -16 23 -16 23 -16 2 0 -11 7 -34 15 -49 8 -16 15 -25 15 -20 0 23
29 -19 35 -52 4 -20 10 -41 15 -47 18 -24 24 -78 21 -205 -2 -74 -7 -139 -11
-145 -4 -5 -10 -84 -11 -174 -2 -91 -2 -156 0 -145 3 10 10 -39 17 -111 16
-163 24 -217 37 -232 7 -10 64 -13 224 -13 l215 0 -7 29 c-3 15 -7 52 -9 82
-2 30 -16 90 -31 134 -15 44 -28 87 -29 95 -4 24 -27 64 -51 85 -12 11 -30 43
-40 70 -47 136 -67 160 -138 168 -34 3 -54 12 -72 31 -23 25 -24 32 -22 134 3
109 -10 198 -38 265 -8 20 -20 37 -27 37 -6 0 -8 3 -5 7 4 3 2 12 -4 19 -30
36 -49 121 -50 224 -1 129 -19 247 -53 338 -26 70 -96 162 -123 162 -16 0 -23
-6 -23 -20z m70 -120 c7 -17 18 -29 24 -27 22 7 86 -221 86 -310 0 -29 -4 -53
-9 -53 -21 0 -36 40 -45 122 -2 15 -8 33 -14 40 -18 22 -61 186 -55 209 4 15
3 20 -5 15 -8 -5 -12 0 -12 13 0 31 16 26 30 -9z m219 -787 c0 -5 -4 -17 -9
-28 -8 -18 -9 -17 -9 8 -1 15 4 27 9 27 6 0 10 -3 9 -7z"/>
<path d="M1137 1803 c-4 -3 -26 -6 -48 -5 -26 1 -54 -5 -73 -17 -17 -10 -37
-16 -43 -14 -7 3 -16 -2 -19 -11 -3 -9 -10 -14 -14 -11 -4 3 -10 -2 -14 -10
-3 -8 -12 -15 -20 -15 -7 0 -17 -7 -20 -16 -4 -10 -2 -13 6 -8 7 5 8 3 4 -5
-5 -7 -14 -10 -22 -7 -8 3 -13 1 -11 -5 1 -6 -7 -16 -17 -22 -50 -30 -146
-121 -146 -138 0 -5 -6 -9 -13 -9 -12 0 -58 -57 -82 -100 -6 -12 -5 -13 6 -2
7 6 25 12 40 12 15 0 32 7 39 15 7 8 16 12 21 9 5 -3 9 2 9 10 0 9 4 16 10 16
5 0 12 11 16 25 3 14 10 25 15 25 5 0 9 6 9 14 0 7 17 26 38 42 20 15 40 33
44 38 26 42 138 126 168 126 6 0 10 7 10 15 0 9 12 20 26 25 33 13 53 13 34 0
-12 -8 -9 -10 10 -6 14 3 42 8 63 11 21 3 35 10 32 16 -7 10 -48 12 -58 2z
m-417 -322 c0 -6 -4 -13 -10 -16 -5 -3 -10 1 -10 9 0 9 5 16 10 16 6 0 10 -4
10 -9z"/>
<path d="M1488 1685 c15 -30 30 -55 34 -55 11 0 -9 49 -27 66 -8 9 -15 22 -15
30 0 8 -4 14 -10 14 -5 0 3 -25 18 -55z"/>
<path d="M1114 1614 c-19 -15 -19 -16 1 -8 36 13 93 16 112 5 16 -9 16 -10 -6
-11 -33 0 -24 -6 23 -14 32 -6 38 -5 33 8 -4 10 -1 13 9 9 7 -3 14 -1 14 5 0
9 -77 22 -136 22 -16 0 -39 -7 -50 -16z"/>
<path d="M1185 1433 c-11 -2 -71 -15 -132 -29 -62 -13 -120 -27 -128 -30 -22
-9 -18 -27 5 -21 14 4 20 0 20 -11 0 -10 9 -49 21 -87 16 -54 25 -71 40 -72
10 -1 22 3 25 9 4 7 2 8 -4 4 -7 -4 -12 -3 -12 3 0 18 20 23 26 6 5 -12 9 -13
21 -3 16 13 54 83 52 95 -1 5 -1 24 0 43 1 27 4 31 11 20 8 -13 10 -13 10 1 0
17 18 22 145 34 85 9 102 13 108 29 5 11 -12 14 -91 14 -53 0 -106 -2 -117 -5z
m-95 -93 c0 -15 -7 -20 -25 -20 -24 0 -34 18 -18 33 15 15 43 7 43 -13z"/>
<path d="M696 1342 c-52 -18 -80 -47 -59 -60 6 -4 14 -19 18 -34 6 -24 22 -45
60 -76 13 -11 15 -6 15 42 0 34 -5 56 -12 60 -9 3 -7 9 7 21 19 15 20 14 27
-7 4 -15 6 -7 5 25 0 26 -3 47 -6 47 -3 -1 -28 -9 -55 -18z"/>
<path d="M848 1046 c-16 -12 -25 -36 -13 -36 16 0 55 26 55 37 0 17 -20 16
-42 -1z"/>
<path d="M1375 1028 c-10 -6 -32 -26 -48 -45 -17 -19 -55 -49 -85 -65 -62 -36
-101 -88 -109 -149 l-6 -42 38 6 c21 3 45 2 54 -2 27 -14 59 6 81 49 14 27 26
40 35 36 10 -3 19 18 34 81 11 48 24 89 29 92 16 11 21 39 8 44 -7 3 -20 0
-31 -5z"/>
<path d="M1020 996 c-5 -14 -14 -37 -19 -50 -6 -14 -25 -46 -44 -73 -35 -48
-62 -149 -47 -173 4 -6 7 3 8 19 0 17 3 35 7 41 8 13 25 13 25 -1 0 -5 -5 -7
-12 -3 -7 4 -8 3 -4 -4 9 -15 38 -3 32 13 -3 8 2 16 10 19 7 3 13 2 13 -2 -1
-4 -1 -16 1 -27 l1 -20 9 20 c5 11 9 38 10 60 0 22 7 76 15 120 15 83 13 107
-5 61z"/>
<path d="M618 985 c4 -21 7 -23 25 -13 20 10 20 11 2 24 -27 20 -33 17 -27
-11z"/>
<path d="M1550 126 c0 -13 -6 -26 -12 -29 -10 -3 -8 -10 5 -23 18 -19 19 -19
32 0 10 13 11 23 5 31 -6 7 -8 20 -4 29 4 11 1 16 -10 16 -10 0 -16 -9 -16
-24z"/>
<path d="M1570 46 c0 -8 5 -18 10 -21 6 -3 10 3 10 14 0 12 -4 21 -10 21 -5 0
-10 -6 -10 -14z"/>
</g>
</svg>
