<svg xmlns="http://www.w3.org/2000/svg" version="1.1" xmlns:xlink="http://www.w3.org/1999/xlink" xmlns:svgjs="http://svgjs.com/svgjs" id="Pattern873SvgRootPreview" width="100%" height="100%"><defs><pattern x="0" y="0" width="1" height="1" patternUnits="userSpaceOnUse" id="Pattern873Layer1"><g id="PatternRootContent1"><g id="Pattern873Layer1background"><rect width="1" height="1" id="Pattern873Background1" class="fill_color_1" fill="#aac8b7"></rect></g></g></pattern><pattern x="0" y="0" width="141" height="244" patternUnits="userSpaceOnUse" id="Pattern873Layer2" patternTransform="matrix(0.5,0,0,0.5,0,0)"><g id="PatternRootContent2"><g id="Pattern873Layer2Element3"><use xlink:href="#Pattern873Element3" x="64.11648559570312" y="-147.14576721191406" transform="translate(141, -61) scale(1) translate(-141, 61) rotate(45, 141, -61)"></use><use xlink:href="#Pattern873Element3" x="-76.88351440429688" y="-147.14576721191406" transform="translate(0, -61) scale(1) translate(0, 61) rotate(45, 0, -61)"></use><use xlink:href="#Pattern873Element3" x="-6.383514404296875" y="-25.145767211914062" transform="translate(70.5, 61) scale(1) translate(-70.5, -61) rotate(45, 70.5, 61)"></use><use xlink:href="#Pattern873Element3" x="-147.38351440429688" y="-25.145767211914062" transform="translate(-70.5, 61) scale(1) translate(70.5, -61) rotate(45, -70.5, 61)"></use><use xlink:href="#Pattern873Element3" x="134.61648559570312" y="-25.145767211914062" transform="translate(211.5, 61) scale(1) translate(-211.5, -61) rotate(45, 211.5, 61)"></use><use xlink:href="#Pattern873Element3" x="64.11648559570312" y="96.85423278808594" transform="translate(141, 183) scale(1) translate(-141, -183) rotate(45, 141, 183)"></use><use xlink:href="#Pattern873Element3" x="-76.88351440429688" y="96.85423278808594" transform="translate(0, 183) scale(1) translate(0, -183) rotate(45, 0, 183)"></use><use xlink:href="#Pattern873Element3" x="-6.383514404296875" y="218.85423278808594" transform="translate(70.5, 305) scale(1) translate(-70.5, -305) rotate(45, 70.5, 305)"></use><use xlink:href="#Pattern873Element3" x="-6.383514404296875" y="218.85423278808594" transform="translate(70.5, 305) scale(1) translate(-70.5, -305) rotate(45, 70.5, 305)"></use></g></g></pattern><symbol id="Pattern873Element3"><g class="fill_color_4" fill="#c1d9c9"><g transform="matrix(1,0,0,1,0,0)"><path d="M76.118,136.68324279785156L68.25,113.4864273071289L92.743,113.80101013183594L100.611,136.99783325195312Z"></path><path d="M75.963,138.1611785888672L99.985,142.9456024169922L87.466,163.99951171875L63.444,159.21507263183594Z"></path><path d="M74.76,137.28773498535156L58.605,155.6995391845703L46.631,134.3310546875L62.786,115.91866302490234Z"></path></g><g transform="matrix(1,0,0,1,0,0)"><path d="M32.734,110.75154113769531L48.889,92.33934020996094L60.863,113.70802307128906L44.708,132.12022399902344Z"></path><path d="M31.376,111.35594177246094L39.244,134.5524444580078L14.752,134.23751831054688L6.884,111.04102325439453Z"></path><path d="M31.532,109.87808227539062L7.509,105.09278869628906L20.028,84.03902435302734L44.051,88.82331848144531Z"></path></g><g transform="matrix(1,0,0,1,0,0)"><path d="M33.5,60.214054107666016L57.523,64.9986801147461L45.004,86.05277252197266L20.981,81.26814270019531Z"></path><path d="M32.297,59.34052658081055L16.143,77.75259399414062L4.169,56.3837776184082L20.324,37.97171401977539Z"></path><path d="M33.655,58.73611068725586L25.788,35.53901672363281L50.28,35.853736877441406L58.148,59.0504264831543Z"></path></g><g transform="matrix(1,0,0,1,0,0)"><path d="M77.649,35.6082878112793L85.517,58.805110931396484L61.024,58.49052429199219L53.156,35.293701171875Z"></path><path d="M77.804,34.1303596496582L53.782,29.345928192138672L66.301,8.292030334472656L90.324,13.076460838317871Z"></path><path d="M79.007,35.00380325317383L95.162,16.591999053955078L107.136,37.96048355102539L90.981,56.37287902832031Z"></path></g><g transform="matrix(1,0,0,1,0,0)"><path d="M121.033,61.540000915527344L104.878,79.95219421386719L92.904,58.58351516723633L109.059,40.17131805419922Z"></path><path d="M122.391,60.93559646606445L114.523,37.73910140991211L139.015,38.05401611328125L146.883,61.250511169433594Z"></path><path d="M122.235,62.413455963134766L146.258,67.19874572753906L133.739,88.25251007080078L109.716,83.46821594238281Z"></path></g><g transform="matrix(1,0,0,1,0,0)"><path d="M120.267,112.07748413085938L96.245,107.29285430908203L108.763,86.23876190185547L132.786,91.02339172363281Z"></path><path d="M121.47,112.95101165771484L137.625,94.53894805908203L149.598,115.90776062011719L133.443,134.31982421875Z"></path><path d="M120.112,113.55542755126953L127.979,136.7525177001953L103.487,136.43780517578125L95.619,113.2411117553711Z"></path></g></g></symbol></defs><rect width="100%" height="100%" id="Pattern873RctLayer1" fill="url(#Pattern873Layer1)"></rect><rect width="100%" height="100%" id="Pattern873RctLayer2" fill="url(#Pattern873Layer2)"></rect></svg>